<svg width="64" height="64" viewBox="0 0 64 64" fill="none" xmlns="http://www.w3.org/2000/svg">
<path d="M57.3334 48L39.6192 32M24.3811 32L6.66692 48M5.3335 18.6666L27.1066 33.9078C28.8697 35.142 29.7513 35.7591 30.7102 35.9981C31.5572 36.2092 32.4431 36.2092 33.2901 35.9981C34.249 35.7591 35.1306 35.142 36.8937 33.9078L58.6668 18.6666M18.1335 53.3333H45.8668C50.3473 53.3333 52.5875 53.3333 54.2988 52.4613C55.804 51.6944 57.0279 50.4705 57.7949 48.9652C58.6668 47.2539 58.6668 45.0137 58.6668 40.5333V23.4666C58.6668 18.9862 58.6668 16.746 57.7949 15.0347C57.0279 13.5294 55.804 12.3056 54.2988 11.5386C52.5875 10.6666 50.3473 10.6666 45.8668 10.6666H18.1335C13.6531 10.6666 11.4129 10.6666 9.70157 11.5386C8.19628 12.3056 6.97243 13.5294 6.20544 15.0347C5.3335 16.746 5.3335 18.9862 5.3335 23.4666V40.5333C5.3335 45.0137 5.3335 47.2539 6.20544 48.9652C6.97243 50.4705 8.19628 51.6944 9.70157 52.4613C11.4129 53.3333 13.6531 53.3333 18.1335 53.3333Z" stroke="black" stroke-width="2" stroke-linecap="round" stroke-linejoin="round"/>
</svg>
