<svg width="14" height="20" viewBox="0 0 14 20" fill="none" xmlns="http://www.w3.org/2000/svg">
<path d="M11 0H3C2.20435 0 1.44129 0.316071 0.87868 0.87868C0.316071 1.44129 2.53527e-07 2.20435 2.53527e-07 3V19C-0.000699314 19.1762 0.0451749 19.3495 0.132978 19.5023C0.220782 19.655 0.347396 19.7819 0.5 19.87C0.652019 19.9578 0.824464 20.004 1 20.004C1.17554 20.004 1.34798 19.9578 1.5 19.87L7 16.69L12.5 19.87C12.6524 19.9564 12.8248 20.0012 13 20C13.1752 20.0012 13.3476 19.9564 13.5 19.87C13.6526 19.7819 13.7792 19.655 13.867 19.5023C13.9548 19.3495 14.0007 19.1762 14 19V3C14 2.20435 13.6839 1.44129 13.1213 0.87868C12.5587 0.316071 11.7956 0 11 0ZM12 17.27L7.5 14.67C7.34798 14.5822 7.17554 14.536 7 14.536C6.82446 14.536 6.65202 14.5822 6.5 14.67L2 17.27V3C2 2.73478 2.10536 2.48043 2.29289 2.29289C2.48043 2.10536 2.73478 2 3 2H11C11.2652 2 11.5196 2.10536 11.7071 2.29289C11.8946 2.48043 12 2.73478 12 3V17.27Z" fill="#191B29"/>
</svg>
