<svg xmlns="http://www.w3.org/2000/svg" width="20" height="20" fill="none" viewBox="0 0 20 20">
  <path fill="#191B29" d="M3.333 10a.833.833 0 0 0 .834.833h6.325l-1.917 1.909a.834.834 0 0 0 .271 1.365.833.833 0 0 0 .912-.182l3.334-3.333a.831.831 0 0 0 .175-.275.833.833 0 0 0 0-.634.832.832 0 0 0-.175-.275L9.758 6.075a.837.837 0 0 0-1.183 1.183l1.917 1.909H4.167a.833.833 0 0 0-.833.833Zm10.834-8.333H5.834a2.5 2.5 0 0 0-2.5 2.5v2.5a.833.833 0 1 0 1.666 0v-2.5a.833.833 0 0 1 .833-.834h8.334a.833.833 0 0 1 .833.834v11.666a.833.833 0 0 1-.833.834H5.833A.833.833 0 0 1 5 15.833v-2.5a.833.833 0 0 0-1.667 0v2.5a2.5 2.5 0 0 0 2.5 2.5h8.334a2.5 2.5 0 0 0 2.5-2.5V4.167a2.5 2.5 0 0 0-2.5-2.5Z"/>
</svg>
