<svg xmlns="http://www.w3.org/2000/svg" width="20" height="20" fill="none" viewBox="0 0 20 20">
  <path fill="#191B29" d="M18.25 6.325 17.417 3.1a2.497 2.497 0 0 0-3.092-1.767l-1.608.434a.833.833 0 0 0-.592 1.025l.217.833-8.85 2.342A.833.833 0 0 0 2.9 6.983l.217.834-.833.216A.84.84 0 1 0 2.492 9.7a.908.908 0 0 0 .217 0l.833-.225.217.833c.057.21.195.39.383.5.126.075.27.116.417.117a.626.626 0 0 0 .216 0l2.725-.858v.35c0 .37.086.735.25 1.066L3.584 15.65a.834.834 0 0 0 1.175 1.183l4.166-4.166.234.091v5.159a.833.833 0 1 0 1.666 0v-5.15a2.11 2.11 0 0 0 .242-.1l4.166 4.166a.834.834 0 1 0 1.175-1.183l-4.166-4.167c.162-.333.25-.696.258-1.066V8.75l1.125-.3.209.833a.833.833 0 0 0 .833.617h.216l1.609-.433a2.5 2.5 0 0 0 1.758-3.142Zm-7.416 4.092a.836.836 0 0 1-.234.575.833.833 0 0 1-.575.233.833.833 0 0 1-.583-.242.834.834 0 0 1-.242-.583v-.833l1.634-.4v1.25Zm-5.675-1.45-.434-1.609 8.05-2.158.217.833.216.834-8.05 2.1Zm11.4-1.584a.833.833 0 0 1-.509.392l-.833.217-.65-2.417-.4-1.608-.217-.834.834-.216a.833.833 0 0 1 1.024.591l.834 3.225a.831.831 0 0 1-.084.65Z"/>
</svg>
