<svg xmlns="http://www.w3.org/2000/svg" width="20" height="20" fill="none" viewBox="0 0 20 20">
  <path fill="#191B29" d="m16.758 14.575-4.258-7.3V3.333h.833a.833.833 0 1 0 0-1.666H6.667a.833.833 0 1 0 0 1.666H7.5v3.942l-4.258 7.3A2.5 2.5 0 0 0 5.4 18.333h9.167a2.499 2.499 0 0 0 2.158-3.758h.033ZM9.05 7.908a.833.833 0 0 0 .117-.408V3.333h1.666V7.5a.84.84 0 0 0 .117.417l.717 1.25H8.333l.717-1.259Zm6.267 8.334a.833.833 0 0 1-.717.416H5.433a.834.834 0 0 1-.716-1.25l2.641-4.575h5.292l2.667 4.584a.833.833 0 0 1 0 .833v-.008ZM8.333 12.5a.833.833 0 1 0 0 1.666.833.833 0 0 0 0-1.666Zm3.334.833a.834.834 0 1 0 0 1.668.834.834 0 0 0 0-1.668Z"/>
</svg>
