<svg width="20" height="20" viewBox="0 0 20 20" fill="none" xmlns="http://www.w3.org/2000/svg">
<path d="M10.8333 9.16663H5.83334C5.61232 9.16663 5.40036 9.25442 5.24408 9.4107C5.0878 9.56698 5.00001 9.77894 5.00001 9.99996C5.00001 10.221 5.0878 10.4329 5.24408 10.5892C5.40036 10.7455 5.61232 10.8333 5.83334 10.8333H10.8333C11.0544 10.8333 11.2663 10.7455 11.4226 10.5892C11.5789 10.4329 11.6667 10.221 11.6667 9.99996C11.6667 9.77894 11.5789 9.56698 11.4226 9.4107C11.2663 9.25442 11.0544 9.16663 10.8333 9.16663ZM14.1667 5.83329H5.83334C5.61232 5.83329 5.40036 5.92109 5.24408 6.07737C5.0878 6.23365 5.00001 6.44561 5.00001 6.66663C5.00001 6.88764 5.0878 7.0996 5.24408 7.25588C5.40036 7.41216 5.61232 7.49996 5.83334 7.49996H14.1667C14.3877 7.49996 14.5996 7.41216 14.7559 7.25588C14.9122 7.0996 15 6.88764 15 6.66663C15 6.44561 14.9122 6.23365 14.7559 6.07737C14.5996 5.92109 14.3877 5.83329 14.1667 5.83329ZM15.8333 1.66663H4.16667C3.50363 1.66663 2.86775 1.93002 2.3989 2.39886C1.93006 2.8677 1.66667 3.50358 1.66667 4.16663V12.5C1.66667 13.163 1.93006 13.7989 2.3989 14.2677C2.86775 14.7366 3.50363 15 4.16667 15H13.825L16.9083 18.0916C16.9862 18.1689 17.0786 18.23 17.1801 18.2714C17.2816 18.3129 17.3903 18.3339 17.5 18.3333C17.6093 18.3361 17.7178 18.3133 17.8167 18.2666C17.9689 18.2041 18.0991 18.0979 18.1911 17.9615C18.283 17.8251 18.3325 17.6645 18.3333 17.5V4.16663C18.3333 3.50358 18.0699 2.8677 17.6011 2.39886C17.1323 1.93002 16.4964 1.66663 15.8333 1.66663ZM16.6667 15.4916L14.7583 13.575C14.6805 13.4977 14.5881 13.4366 14.4866 13.3951C14.3851 13.3537 14.2763 13.3327 14.1667 13.3333H4.16667C3.94566 13.3333 3.7337 13.2455 3.57742 13.0892C3.42114 12.9329 3.33334 12.721 3.33334 12.5V4.16663C3.33334 3.94561 3.42114 3.73365 3.57742 3.57737C3.7337 3.42109 3.94566 3.33329 4.16667 3.33329H15.8333C16.0544 3.33329 16.2663 3.42109 16.4226 3.57737C16.5789 3.73365 16.6667 3.94561 16.6667 4.16663V15.4916Z" fill="#191B29"/>
</svg>
