<svg width="63" height="41" viewBox="0 0 63 41" fill="none" xmlns="http://www.w3.org/2000/svg">
<rect x="1.79688" y="1.5" width="60" height="38" rx="7" fill="#FFEBEF"/>
<rect x="1.79688" y="1.5" width="60" height="38" rx="7" stroke="#5D11FF" stroke-width="2"/>
<path d="M13.8423 26.5H10.0753V14.8636H13.9616C15.1018 14.8636 16.081 15.0966 16.8991 15.5625C17.7173 16.0246 18.3442 16.6894 18.7798 17.5568C19.2192 18.4205 19.4389 19.4564 19.4389 20.6648C19.4389 21.8769 19.2173 22.9186 18.7741 23.7898C18.3348 24.661 17.6984 25.3314 16.8651 25.8011C16.0317 26.267 15.0241 26.5 13.8423 26.5ZM11.831 24.9659H13.7457C14.6321 24.9659 15.3688 24.7992 15.956 24.4659C16.5431 24.1288 16.9825 23.642 17.2741 23.0057C17.5658 22.3655 17.7116 21.5852 17.7116 20.6648C17.7116 19.7519 17.5658 18.9773 17.2741 18.3409C16.9863 17.7045 16.5563 17.2216 15.9844 16.892C15.4124 16.5625 14.7022 16.3977 13.8537 16.3977H11.831V24.9659ZM25.1619 26.6761C24.3438 26.6761 23.6297 26.4886 23.0199 26.1136C22.41 25.7386 21.9366 25.214 21.5994 24.5398C21.2623 23.8655 21.0938 23.0777 21.0938 22.1761C21.0938 21.2708 21.2623 20.4792 21.5994 19.8011C21.9366 19.1231 22.41 18.5966 23.0199 18.2216C23.6297 17.8466 24.3438 17.6591 25.1619 17.6591C25.9801 17.6591 26.6941 17.8466 27.304 18.2216C27.9138 18.5966 28.3873 19.1231 28.7244 19.8011C29.0616 20.4792 29.2301 21.2708 29.2301 22.1761C29.2301 23.0777 29.0616 23.8655 28.7244 24.5398C28.3873 25.214 27.9138 25.7386 27.304 26.1136C26.6941 26.4886 25.9801 26.6761 25.1619 26.6761ZM25.1676 25.25C25.6979 25.25 26.1373 25.1098 26.4858 24.8295C26.8343 24.5492 27.0919 24.1761 27.2585 23.7102C27.429 23.2443 27.5142 22.7311 27.5142 22.1705C27.5142 21.6136 27.429 21.1023 27.2585 20.6364C27.0919 20.1667 26.8343 19.7898 26.4858 19.5057C26.1373 19.2216 25.6979 19.0795 25.1676 19.0795C24.6335 19.0795 24.1903 19.2216 23.8381 19.5057C23.4896 19.7898 23.2301 20.1667 23.0597 20.6364C22.893 21.1023 22.8097 21.6136 22.8097 22.1705C22.8097 22.7311 22.893 23.2443 23.0597 23.7102C23.2301 24.1761 23.4896 24.5492 23.8381 24.8295C24.1903 25.1098 24.6335 25.25 25.1676 25.25ZM32.8253 21.3182V26.5H31.1264V17.7727H32.7571V19.1932H32.8651C33.0658 18.7311 33.3802 18.3598 33.8082 18.0795C34.2401 17.7992 34.7836 17.6591 35.4389 17.6591C36.0336 17.6591 36.5545 17.7841 37.0014 18.0341C37.4484 18.2803 37.795 18.6477 38.0412 19.1364C38.2874 19.625 38.4105 20.2292 38.4105 20.9489V26.5H36.7116V21.1534C36.7116 20.5208 36.5469 20.0265 36.2173 19.6705C35.8878 19.3106 35.4351 19.1307 34.8594 19.1307C34.4654 19.1307 34.1151 19.2159 33.8082 19.3864C33.5052 19.5568 33.2647 19.8068 33.0866 20.1364C32.9124 20.4621 32.8253 20.8561 32.8253 21.3182ZM43.2287 26.6932C42.6757 26.6932 42.1757 26.5909 41.7287 26.3864C41.2817 26.178 40.9276 25.8769 40.6662 25.483C40.4086 25.089 40.2798 24.6061 40.2798 24.0341C40.2798 23.5417 40.3745 23.1364 40.5639 22.8182C40.7533 22.5 41.009 22.2481 41.331 22.0625C41.6529 21.8769 42.0128 21.7367 42.4105 21.642C42.8082 21.5473 43.2135 21.4754 43.6264 21.4261C44.1491 21.3655 44.5734 21.3163 44.8991 21.2784C45.2249 21.2367 45.4616 21.1705 45.6094 21.0795C45.7571 20.9886 45.831 20.8409 45.831 20.6364V20.5966C45.831 20.1004 45.6908 19.7159 45.4105 19.4432C45.134 19.1705 44.7211 19.0341 44.1719 19.0341C43.5999 19.0341 43.1491 19.161 42.8196 19.4148C42.4938 19.6648 42.2685 19.9432 42.1435 20.25L40.5469 19.8864C40.7363 19.3561 41.0128 18.928 41.3764 18.6023C41.7438 18.2727 42.1662 18.0341 42.6435 17.8864C43.1207 17.7348 43.6226 17.6591 44.1491 17.6591C44.4976 17.6591 44.867 17.7008 45.2571 17.7841C45.651 17.8636 46.0185 18.0114 46.3594 18.2273C46.7041 18.4432 46.9863 18.7519 47.206 19.1534C47.4257 19.5511 47.5355 20.0682 47.5355 20.7045V26.5H45.8764V25.3068H45.8082C45.6984 25.5265 45.5336 25.7424 45.3139 25.9545C45.0942 26.1667 44.812 26.3428 44.4673 26.483C44.1226 26.6231 43.7098 26.6932 43.2287 26.6932ZM43.598 25.3295C44.0677 25.3295 44.4692 25.2367 44.8026 25.0511C45.1397 24.8655 45.3954 24.6231 45.5696 24.3239C45.7476 24.0208 45.8366 23.697 45.8366 23.3523V22.2273C45.776 22.2879 45.6586 22.3447 45.4844 22.3977C45.3139 22.447 45.1188 22.4905 44.8991 22.5284C44.6795 22.5625 44.4654 22.5947 44.2571 22.625C44.0488 22.6515 43.8745 22.6742 43.7344 22.6932C43.4048 22.7348 43.1037 22.8049 42.831 22.9034C42.562 23.0019 42.3461 23.1439 42.1832 23.3295C42.0241 23.5114 41.9446 23.7538 41.9446 24.0568C41.9446 24.4773 42.0999 24.7955 42.4105 25.0114C42.7211 25.2235 43.117 25.3295 43.598 25.3295ZM49.7983 26.5V17.7727H51.4403V19.1591H51.5312C51.6903 18.6894 51.9706 18.3201 52.3722 18.0511C52.7775 17.7784 53.2358 17.642 53.7472 17.642C53.8532 17.642 53.9782 17.6458 54.1222 17.6534C54.2699 17.661 54.3854 17.6705 54.4688 17.6818V19.3068C54.4006 19.2879 54.2794 19.267 54.1051 19.2443C53.9309 19.2178 53.7566 19.2045 53.5824 19.2045C53.1809 19.2045 52.8229 19.2898 52.5085 19.4602C52.1979 19.6269 51.9517 19.8598 51.7699 20.1591C51.5881 20.4545 51.4972 20.7917 51.4972 21.1705V26.5H49.7983Z" fill="#5D11FF"/>
</svg>
