<svg xmlns="http://www.w3.org/2000/svg" width="20" height="20" fill="none" viewBox="0 0 20 20">
  <path fill="#191B29" d="M17.5 5a.833.833 0 0 0-.834.833v8.334a2.5 2.5 0 0 1-2.5 2.5H5.833a.833.833 0 1 0 0 1.666h8.334a4.167 4.167 0 0 0 4.166-4.166V5.833A.833.833 0 0 0 17.5 5ZM15 12.5V4.167a2.5 2.5 0 0 0-2.5-2.5H4.166a2.5 2.5 0 0 0-2.5 2.5V12.5a2.5 2.5 0 0 0 2.5 2.5H12.5a2.5 2.5 0 0 0 2.5-2.5ZM8.333 3.333H10v4.05l-.3-.25a.833.833 0 0 0-1.067 0l-.3.25v-4.05Zm-5 9.167V4.167a.833.833 0 0 1 .833-.834h2.5v5.834a.833.833 0 0 0 1.375.633l1.125-.942 1.125.942a.834.834 0 0 0 1.375-.633V3.333h.834a.833.833 0 0 1 .833.834V12.5a.833.833 0 0 1-.833.833H4.166a.833.833 0 0 1-.833-.833Z"/>
</svg>
