<svg xmlns="http://www.w3.org/2000/svg" width="20" height="20" fill="none" viewBox="0 0 20 20">
  <path fill="#191B29" d="M13.333 11.667H6.667a.833.833 0 1 0 0 1.666h6.666a.833.833 0 0 0 0-1.666Zm0-3.334h-5a.833.833 0 0 0 0 1.667h5a.833.833 0 0 0 0-1.667Zm3.334-5h-2.5V2.5a.833.833 0 1 0-1.667 0v.833h-1.667V2.5a.834.834 0 0 0-1.666 0v.833H7.5V2.5a.833.833 0 0 0-1.667 0v.833h-2.5a.833.833 0 0 0-.833.834v11.666a2.5 2.5 0 0 0 2.5 2.5h10a2.5 2.5 0 0 0 2.5-2.5V4.167a.833.833 0 0 0-.833-.834Zm-.834 12.5a.833.833 0 0 1-.833.834H5a.833.833 0 0 1-.833-.834V5h1.666v.833a.833.833 0 1 0 1.667 0V5h1.667v.833a.833.833 0 1 0 1.666 0V5H12.5v.833a.833.833 0 1 0 1.667 0V5h1.666v10.833Z"/>
</svg>
