<svg xmlns="http://www.w3.org/2000/svg" width="20" height="20" fill="none" viewBox="0 0 20 20">
  <path fill="#191B29" d="M10 1.667a8.333 8.333 0 0 0-6.125 13.966 8.334 8.334 0 0 0 12.25 0A8.333 8.333 0 0 0 10 1.667Zm0 15a6.666 6.666 0 0 1-4.625-1.875 5 5 0 0 1 9.25 0A6.666 6.666 0 0 1 10 16.667ZM8.333 8.333a1.667 1.667 0 1 1 3.334 0 1.667 1.667 0 0 1-3.334 0Zm7.425 5a6.667 6.667 0 0 0-3.258-2.816 3.333 3.333 0 1 0-5 0 6.667 6.667 0 0 0-3.258 2.816A6.6 6.6 0 0 1 3.333 10a6.667 6.667 0 1 1 13.334 0 6.6 6.6 0 0 1-.909 3.333Z"/>
</svg>
