<svg xmlns="http://www.w3.org/2000/svg" width="20" height="20" fill="none" viewBox="0 0 20 20">
  <path fill="#191B29" d="M16.667 10.975v-.142A6.667 6.667 0 0 0 14.65 6.05 6.533 6.533 0 0 0 12 4.483h-.041A6.867 6.867 0 0 0 9.8 4.167a6.842 6.842 0 0 0-6.467 6.808 2.5 2.5 0 0 0 .834 4.858h11.666a2.5 2.5 0 0 0 .834-4.858Zm-.834 3.192H4.168a.833.833 0 1 1 0-1.667h1.666a.833.833 0 1 0 0-1.667H5a5.342 5.342 0 0 1 2.5-4.291v2.625a.833.833 0 1 0 1.667 0V5.908c.226-.037.454-.062.683-.075H10c.28.003.559.03.834.084v3.25a.833.833 0 1 0 1.666 0v-2.65c.354.204.683.447.983.725A5 5 0 0 1 15 10.833h-.833a.833.833 0 1 0 0 1.667h1.667a.833.833 0 1 1 0 1.667Z"/>
</svg>
