<svg width="21" height="18" viewBox="0 0 21 18" fill="none" xmlns="http://www.w3.org/2000/svg">
<path d="M19.17 6.22991L5.17001 0.449907C4.64029 0.230693 4.05884 0.167851 3.49451 0.26882C2.93018 0.369788 2.4066 0.630339 1.98575 1.01963C1.5649 1.40891 1.2644 1.91064 1.11983 2.4654C0.975262 3.02016 0.992675 3.60473 1.17001 4.14991L2.71001 8.99991L1.13001 13.8499C0.947881 14.3973 0.927422 14.9855 1.07108 15.5442C1.21475 16.1029 1.51644 16.6083 1.94001 16.9999C2.48465 17.505 3.19729 17.79 3.94001 17.7999C4.33474 17.7996 4.72554 17.7215 5.09001 17.5699L19.14 11.7899C19.6872 11.5623 20.1547 11.1778 20.4836 10.6848C20.8125 10.1919 20.988 9.61252 20.988 9.01991C20.988 8.42729 20.8125 7.84795 20.4836 7.35497C20.1547 6.862 19.6872 6.47747 19.14 6.24991L19.17 6.22991ZM4.36001 15.6999C4.18361 15.7727 3.99007 15.7934 3.80225 15.7598C3.61442 15.7261 3.44015 15.6394 3.30001 15.5099C3.168 15.3838 3.07304 15.2239 3.02545 15.0476C2.97785 14.8713 2.97943 14.6854 3.03001 14.5099L4.49001 9.99991H18.22L4.36001 15.6999ZM4.49001 7.99991L3.00001 3.52991C2.94943 3.35446 2.94785 3.16851 2.99545 2.99222C3.04304 2.81594 3.138 2.65606 3.27001 2.52991C3.36412 2.43118 3.47742 2.35275 3.60296 2.29944C3.7285 2.24613 3.86362 2.21906 4.00001 2.21991C4.13406 2.22016 4.26669 2.24737 4.39001 2.29991L18.22 7.99991H4.49001Z" fill="white"/>
</svg>
