<svg width="31" height="30" viewBox="0 0 31 30" fill="none" xmlns="http://www.w3.org/2000/svg">
<path d="M30.0002 11.505C29.9055 11.2306 29.7332 10.9896 29.5042 10.8112C29.2752 10.6328 28.9994 10.5247 28.7102 10.5L20.1752 9.25497L16.3502 1.49997C16.2274 1.24637 16.0356 1.03249 15.7968 0.882834C15.5581 0.733181 15.282 0.653809 15.0002 0.653809C14.7184 0.653809 14.4423 0.733181 14.2036 0.882834C13.9648 1.03249 13.773 1.24637 13.6502 1.49997L9.82521 9.23997L1.29021 10.5C1.01259 10.5394 0.751597 10.6559 0.536836 10.8362C0.322075 11.0165 0.16215 11.2534 0.0752103 11.52C-0.00437225 11.7805 -0.0115138 12.0577 0.0545519 12.322C0.120618 12.5863 0.257397 12.8276 0.45021 13.02L6.64521 19.02L5.14521 27.54C5.09166 27.8212 5.1197 28.1119 5.22602 28.3777C5.33234 28.6434 5.51249 28.8733 5.74521 29.04C5.97204 29.2021 6.23957 29.2979 6.51778 29.3164C6.79599 29.335 7.07387 29.2756 7.32021 29.145L15.0002 25.14L22.6502 29.16C22.8607 29.2787 23.0985 29.3408 23.3402 29.34C23.6579 29.3411 23.9678 29.2413 24.2252 29.055C24.4579 28.8883 24.6381 28.6584 24.7444 28.3927C24.8507 28.1269 24.8788 27.8362 24.8252 27.555L23.3252 19.035L29.5202 13.035C29.7368 12.8515 29.8968 12.6103 29.9818 12.3395C30.0668 12.0687 30.0732 11.7793 30.0002 11.505ZM20.7752 17.505C20.5993 17.6751 20.4677 17.8857 20.3919 18.1184C20.316 18.3511 20.2983 18.5988 20.3402 18.84L21.4202 25.125L15.7802 22.125C15.5632 22.0094 15.3211 21.949 15.0752 21.949C14.8293 21.949 14.5872 22.0094 14.3702 22.125L8.73021 25.125L9.81021 18.84C9.85211 18.5988 9.83438 18.3511 9.75856 18.1184C9.68273 17.8857 9.55113 17.6751 9.37521 17.505L4.87521 13.005L11.1902 12.09C11.4332 12.0562 11.6642 11.9633 11.863 11.8195C12.0617 11.6756 12.2221 11.4852 12.3302 11.265L15.0002 5.54997L17.8202 11.28C17.9283 11.5002 18.0887 11.6906 18.2875 11.8345C18.4862 11.9783 18.7172 12.0712 18.9602 12.105L25.2752 13.02L20.7752 17.505Z" fill="#191B29"/>
</svg>
