<svg width="27" height="28" viewBox="0 0 27 28" fill="none" xmlns="http://www.w3.org/2000/svg">
<path d="M19.125 10.625V8.375C19.125 6.88316 18.5324 5.45242 17.4775 4.39752C16.4226 3.34263 14.9918 2.75 13.5 2.75C12.0082 2.75 10.5774 3.34263 9.52252 4.39752C8.46763 5.45242 7.875 6.88316 7.875 8.375V10.625C6.97989 10.625 6.12145 10.9806 5.48851 11.6135C4.85558 12.2464 4.5 13.1049 4.5 14V21.875C4.5 22.7701 4.85558 23.6286 5.48851 24.2615C6.12145 24.8944 6.97989 25.25 7.875 25.25H19.125C20.0201 25.25 20.8786 24.8944 21.5115 24.2615C22.1444 23.6286 22.5 22.7701 22.5 21.875V14C22.5 13.1049 22.1444 12.2464 21.5115 11.6135C20.8786 10.9806 20.0201 10.625 19.125 10.625ZM10.125 8.375C10.125 7.47989 10.4806 6.62145 11.1135 5.98851C11.7464 5.35558 12.6049 5 13.5 5C14.3951 5 15.2536 5.35558 15.8865 5.98851C16.5194 6.62145 16.875 7.47989 16.875 8.375V10.625H10.125V8.375ZM20.25 21.875C20.25 22.1734 20.1315 22.4595 19.9205 22.6705C19.7095 22.8815 19.4234 23 19.125 23H7.875C7.57663 23 7.29048 22.8815 7.07951 22.6705C6.86853 22.4595 6.75 22.1734 6.75 21.875V14C6.75 13.7016 6.86853 13.4155 7.07951 13.2045C7.29048 12.9935 7.57663 12.875 7.875 12.875H19.125C19.4234 12.875 19.7095 12.9935 19.9205 13.2045C20.1315 13.4155 20.25 13.7016 20.25 14V21.875Z" fill="#191B29"/>
</svg>
