<svg width="172" height="23" viewBox="0 0 172 23" fill="none" xmlns="http://www.w3.org/2000/svg">
<g clip-path="url(#clip0_240_516)">
<path d="M17.1009 22.2156L10.5965 5.66808L6.87052 15.1672H13.0949V18.9842H5.36289L4.09216 22.2156H0L8.55046 0.50647H12.6426L21.1931 22.2156H17.1009Z" fill="black"/>
<path d="M32.1773 18.3986V22.2156H28.7528C27.7908 22.2156 26.8862 22.0313 26.0391 21.6626C25.1919 21.2939 24.4489 20.7878 23.8099 20.1445C23.1709 19.5011 22.6684 18.7528 22.3023 17.8998C21.9361 17.0468 21.7531 16.1287 21.7531 15.1455V3.08728H25.5222V6.49221H29.8943V10.3092H25.5222V15.1455C25.5222 15.5937 25.6083 16.0166 25.7806 16.4142C25.9529 16.8118 26.1862 17.1552 26.4806 17.4444C26.7749 17.7335 27.1159 17.9649 27.5036 18.1384C27.8913 18.3119 28.3077 18.3986 28.7528 18.3986L32.1773 18.3986Z" fill="black"/>
<path d="M34.3957 0.50647H38.1863V4.99577V6.73076V22.1939H34.3957V6.73076V4.99577V0.50647Z" fill="black"/>
<path d="M57.7857 4.99572V22.1722H53.995V20.8926V13.5839C53.995 12.8899 53.8622 12.2321 53.5966 11.6104C53.3309 10.9887 52.9684 10.4465 52.5089 9.98382C52.0494 9.52116 51.5146 9.15609 50.9044 8.88861C50.2941 8.62113 49.6372 8.48739 48.9337 8.48739C48.2301 8.48739 47.5732 8.62113 46.963 8.88861C46.3527 9.15609 45.8179 9.52115 45.3584 9.98382C44.8989 10.4465 44.5364 10.9887 44.2707 11.6104C44.0051 12.2321 43.8723 12.8899 43.8723 13.5839C43.8723 14.2924 44.0051 14.9575 44.2707 15.5792C44.5364 16.2009 44.8989 16.7431 45.3584 17.2057C45.8179 17.6684 46.3527 18.0335 46.963 18.301C47.5732 18.5684 48.2301 18.7022 48.9337 18.7022C49.4793 18.7022 49.9926 18.6227 50.4736 18.4636C50.9546 18.3046 51.4033 18.0805 51.8197 17.7913L53.5212 21.1962C52.8463 21.6155 52.1248 21.9372 51.3566 22.1613C50.5885 22.3854 49.7808 22.4975 48.9337 22.4975C47.7132 22.4975 46.5645 22.2625 45.4876 21.7926C44.4107 21.3227 43.4738 20.6866 42.677 19.8841C41.8801 19.0817 41.2483 18.1383 40.7816 17.0539C40.315 15.9696 40.0817 14.8129 40.0817 13.5839C40.0817 12.355 40.315 11.2019 40.7816 10.1248C41.2483 9.04766 41.8801 8.10425 42.677 7.29459C43.4739 6.48492 44.4107 5.84514 45.4876 5.37525C46.5645 4.90535 47.7132 4.67041 48.9337 4.67041C49.8813 4.67041 50.7823 4.81499 51.6366 5.10416C52.491 5.39332 53.2771 5.79092 53.995 6.29697V4.99572H57.7857Z" fill="black"/>
<path d="M66.573 22.4758C66.0704 22.4903 65.5392 22.4397 64.9792 22.324C64.4192 22.2083 63.8485 22.0131 63.2669 21.7384C62.6854 21.4637 62.0931 21.0986 61.4901 20.6432C60.887 20.1878 60.2983 19.6131 59.724 18.9191L62.3516 16.2515L63.6869 17.5961C64.3618 18.1745 65.033 18.5359 65.7007 18.6805C66.3684 18.8251 66.9714 18.8395 67.5099 18.7239C68.0483 18.6082 68.4862 18.4058 68.8237 18.1166C69.1611 17.8275 69.3298 17.5383 69.3298 17.2491C69.3298 17.0323 69.2975 16.8371 69.2329 16.6636C69.1683 16.4901 69.0211 16.3274 68.7914 16.1756C68.5616 16.0238 68.2314 15.8828 67.8006 15.7527C67.3699 15.6226 66.7812 15.4925 66.0345 15.3623C65.6325 15.29 65.1982 15.2069 64.7315 15.1129C64.2649 15.0189 63.7982 14.8888 63.3316 14.7225C62.8649 14.5563 62.4126 14.3466 61.9747 14.0936C61.5367 13.8406 61.1455 13.5225 60.8009 13.1394C60.4563 12.7562 60.1835 12.2936 59.9824 11.7514C59.7814 11.2092 59.6809 10.5694 59.6809 9.83203C59.6809 8.89224 59.9573 8.05728 60.5101 7.32713C61.0629 6.59699 61.7988 5.97889 62.7177 5.47285C63.3064 5.14031 64.0028 4.90536 64.8069 4.76801C65.611 4.63066 66.4689 4.64511 67.3806 4.81138C68.2924 4.97765 69.2329 5.31742 70.2021 5.83069C71.1713 6.34396 72.1153 7.08495 73.0343 8.05366L70.579 10.8947L69.179 9.65852C68.4755 9.08019 67.7827 8.7115 67.1006 8.55246C66.4186 8.39343 65.8048 8.3609 65.2592 8.45488C64.7136 8.54886 64.272 8.7332 63.9346 9.00791C63.5972 9.28262 63.4285 9.55732 63.4285 9.83203C63.4285 10.0778 63.4608 10.2875 63.5254 10.461C63.59 10.6345 63.7336 10.7899 63.9561 10.9272C64.1787 11.0646 64.5054 11.1875 64.9361 11.2959C65.3669 11.4044 65.9484 11.5237 66.6807 11.6538C67.2837 11.7694 67.955 11.914 68.6944 12.0875C69.4339 12.261 70.1267 12.543 70.7728 12.9333C71.4189 13.3237 71.9646 13.8623 72.4097 14.549C72.8548 15.2358 73.0774 16.1358 73.0774 17.2491C73.0774 18.2612 72.7794 19.1757 72.1835 19.9926C71.5877 20.8095 70.7585 21.4348 69.6959 21.8686C68.7626 22.2734 67.7217 22.4758 66.573 22.4758Z" fill="black"/>
<path d="M100.43 10.2441C100.918 10.5188 101.36 10.8514 101.755 11.2417C102.15 11.6321 102.491 12.0659 102.778 12.543C103.065 13.0201 103.288 13.537 103.446 14.0936C103.603 14.6503 103.682 15.225 103.682 15.8178C103.682 16.6997 103.517 17.5275 103.187 18.301C102.857 19.0745 102.405 19.7505 101.83 20.3288C101.256 20.9071 100.585 21.3626 99.8164 21.6951C99.0483 22.0276 98.2262 22.1939 97.3504 22.1939H85.8492V9.44169V0.50647H95.0674C95.9432 0.50647 96.7653 0.672738 97.5334 1.00528C98.3016 1.33782 98.9729 1.79326 99.5472 2.37159C100.122 2.94992 100.574 3.62585 100.904 4.39937C101.234 5.17288 101.399 6.00063 101.399 6.88258C101.399 7.50429 101.313 8.09707 101.141 8.66095C100.969 9.22482 100.732 9.75254 100.43 10.2441ZM97.3504 18.3769C97.695 18.3769 98.0216 18.3082 98.3303 18.1709C98.6391 18.0335 98.9083 17.8492 99.138 17.6179C99.3677 17.3865 99.5508 17.1154 99.6872 16.8046C99.8236 16.4937 99.8918 16.1648 99.8918 15.8178C99.8918 15.4708 99.8236 15.1419 99.6872 14.831C99.5508 14.5202 99.3677 14.2491 99.138 14.0177C98.9083 13.7864 98.6391 13.6021 98.3303 13.4647C98.0216 13.3274 97.695 13.2587 97.3504 13.2587H95.0674H90.0276L91.9229 9.44169H95.0674C95.412 9.44169 95.7386 9.37301 96.0473 9.23566C96.3561 9.09831 96.6253 8.91396 96.855 8.68263C97.0847 8.4513 97.2678 8.18021 97.4042 7.86935C97.5406 7.5585 97.6088 7.22957 97.6088 6.88257C97.6088 6.53558 97.5406 6.20665 97.4042 5.89579C97.2678 5.58494 97.0847 5.31385 96.855 5.08251C96.6253 4.85118 96.3561 4.66684 96.0473 4.52949C95.7386 4.39213 95.412 4.32346 95.0674 4.32346H89.6399V5.4512V9.44169V13.2587V18.3769H97.3504Z" fill="#7E42FF"/>
<path d="M113.977 22.4975C112.757 22.4975 111.608 22.2625 110.531 21.7926C109.455 21.3228 108.518 20.6866 107.721 19.8841C106.924 19.0817 106.292 18.1383 105.825 17.0539C105.359 15.9696 105.125 14.8129 105.125 13.5839C105.125 12.355 105.359 11.2019 105.825 10.1248C106.292 9.04766 106.924 8.10425 107.721 7.29459C108.518 6.48492 109.455 5.84515 110.531 5.37525C111.608 4.90536 112.757 4.67041 113.977 4.67041C115.198 4.67041 116.347 4.90536 117.424 5.37525C118.5 5.84515 119.437 6.48492 120.234 7.29459C121.031 8.10425 121.663 9.04766 122.13 10.1248C122.596 11.2019 122.829 12.355 122.829 13.5839C122.829 14.8129 122.596 15.9696 122.13 17.0539C121.663 18.1383 121.031 19.0817 120.234 19.8841C119.437 20.6866 118.5 21.3228 117.424 21.7926C116.347 22.2625 115.198 22.4975 113.977 22.4975ZM113.977 8.4874C113.274 8.4874 112.617 8.62114 112.007 8.88862C111.397 9.1561 110.862 9.52117 110.402 9.98384C109.943 10.4465 109.58 10.9887 109.315 11.6104C109.049 12.2321 108.916 12.89 108.916 13.584C108.916 14.2924 109.049 14.9575 109.315 15.5792C109.58 16.2009 109.943 16.7431 110.402 17.2058C110.862 17.6684 111.397 18.0335 112.007 18.301C112.617 18.5685 113.274 18.7022 113.977 18.7022C114.681 18.7022 115.338 18.5684 115.948 18.301C116.558 18.0335 117.093 17.6684 117.553 17.2058C118.012 16.7431 118.375 16.2009 118.64 15.5792C118.906 14.9575 119.039 14.2924 119.039 13.584C119.039 12.89 118.906 12.2321 118.64 11.6104C118.375 10.9887 118.012 10.4465 117.553 9.98384C117.093 9.52117 116.558 9.1561 115.948 8.88862C115.338 8.62114 114.681 8.4874 113.977 8.4874Z" fill="#7E42FF"/>
<path d="M133.103 22.4975C131.882 22.4975 130.734 22.2625 129.657 21.7926C128.58 21.3228 127.643 20.6866 126.846 19.8841C126.049 19.0817 125.418 18.1383 124.951 17.0539C124.484 15.9696 124.251 14.8129 124.251 13.5839C124.251 12.355 124.484 11.2019 124.951 10.1248C125.418 9.04766 126.049 8.10425 126.846 7.29459C127.643 6.48492 128.58 5.84515 129.657 5.37525C130.734 4.90536 131.882 4.67041 133.103 4.67041C134.323 4.67041 135.472 4.90536 136.549 5.37525C137.626 5.84515 138.563 6.48492 139.36 7.29459C140.157 8.10425 140.788 9.04766 141.255 10.1248C141.722 11.2019 141.955 12.355 141.955 13.5839C141.955 14.8129 141.722 15.9696 141.255 17.0539C140.788 18.1383 140.157 19.0817 139.36 19.8841C138.563 20.6866 137.626 21.3228 136.549 21.7926C135.472 22.2625 134.323 22.4975 133.103 22.4975ZM133.103 8.4874C132.399 8.4874 131.742 8.62114 131.132 8.88862C130.522 9.1561 129.987 9.52117 129.528 9.98384C129.068 10.4465 128.706 10.9887 128.44 11.6104C128.174 12.2321 128.042 12.89 128.042 13.584C128.042 14.2924 128.174 14.9575 128.44 15.5792C128.706 16.2009 129.068 16.7431 129.528 17.2058C129.987 17.6684 130.522 18.0335 131.132 18.301C131.742 18.5685 132.399 18.7022 133.103 18.7022C133.806 18.7022 134.463 18.5684 135.074 18.301C135.684 18.0335 136.219 17.6684 136.678 17.2058C137.138 16.7431 137.5 16.2009 137.766 15.5792C138.031 14.9575 138.164 14.2924 138.164 13.584C138.164 12.89 138.031 12.2321 137.766 11.6104C137.5 10.9887 137.138 10.4465 136.678 9.98384C136.219 9.52117 135.684 9.1561 135.074 8.88862C134.463 8.62114 133.806 8.4874 133.103 8.4874Z" fill="#7E42FF"/>
<path d="M153.521 22.1939L147.641 16.2949L147.662 22.1939H143.872V0.50647H147.641V10.8948L151.798 6.73077H157.139L150.333 13.584L158.862 22.1939H153.521Z" fill="#7E42FF"/>
<path d="M165.496 22.4758C164.993 22.4903 164.462 22.4397 163.902 22.324C163.342 22.2083 162.771 22.0131 162.19 21.7384C161.608 21.4637 161.016 21.0986 160.413 20.6432C159.81 20.1878 159.221 19.6131 158.647 18.9191L161.274 16.2515L162.61 17.5961C163.284 18.1745 163.956 18.5359 164.623 18.6805C165.291 18.8251 165.894 18.8395 166.432 18.7239C166.971 18.6082 167.409 18.4058 167.746 18.1166C168.084 17.8275 168.252 17.5383 168.252 17.2491C168.252 17.0323 168.22 16.8371 168.155 16.6636C168.091 16.4901 167.944 16.3274 167.714 16.1756C167.484 16.0238 167.154 15.8828 166.723 15.7527C166.292 15.6226 165.704 15.4925 164.957 15.3623C164.555 15.29 164.121 15.2069 163.654 15.1129C163.187 15.0189 162.721 14.8888 162.254 14.7225C161.788 14.5563 161.335 14.3466 160.897 14.0936C160.459 13.8406 160.068 13.5225 159.723 13.1394C159.379 12.7562 159.106 12.2936 158.905 11.7514C158.704 11.2092 158.604 10.5694 158.604 9.83203C158.604 8.89224 158.88 8.05728 159.433 7.32713C159.986 6.59699 160.721 5.97889 161.64 5.47285C162.229 5.14031 162.925 4.90536 163.729 4.76801C164.534 4.63066 165.391 4.64511 166.303 4.81138C167.215 4.97765 168.155 5.31742 169.125 5.83069C170.094 6.34396 171.038 7.08495 171.957 8.05366L169.502 10.8947L168.102 9.65852C167.398 9.08019 166.705 8.7115 166.023 8.55246C165.341 8.39343 164.727 8.3609 164.182 8.45488C163.636 8.54886 163.195 8.7332 162.857 9.00791C162.52 9.28262 162.351 9.55732 162.351 9.83203C162.351 10.0778 162.383 10.2875 162.448 10.461C162.513 10.6345 162.656 10.7899 162.879 10.9272C163.101 11.0646 163.428 11.1875 163.859 11.2959C164.289 11.4044 164.871 11.5237 165.603 11.6538C166.206 11.7694 166.878 11.914 167.617 12.0875C168.356 12.261 169.049 12.543 169.695 12.9333C170.342 13.3237 170.887 13.8623 171.332 14.549C171.777 15.2358 172 16.1358 172 17.2491C172 18.2612 171.702 19.1757 171.106 19.9926C170.51 20.8095 169.681 21.4348 168.619 21.8686C167.685 22.2734 166.644 22.4758 165.496 22.4758Z" fill="#7E42FF"/>
</g>
<defs>
<clipPath id="clip0_240_516">
<rect width="172" height="22" fill="white" transform="translate(0 0.5)"/>
</clipPath>
</defs>
</svg>
